<svg xmlns="http://www.w3.org/2000/svg" width="500" height="500" fill="none" viewBox="0 0 500 500"><g clip-path="url(#a)"><rect width="500" height="500" fill="#2042C5" rx="60"/><circle cx="250" cy="250" r="143" stroke="url(#b)" stroke-dasharray="500 500 1000 1500 2000 500 500 1000" stroke-opacity="0.3" stroke-width="250"/><path fill="#D9D9D9" stroke="#3F2830" stroke-width="4" d="M328.873 390.105 244.37 74.736l45.923 27.841a30 30 0 0 1 13.425 17.889l61.33 228.887c4.288 16.004-5.209 32.454-21.213 36.743z"/><path fill="#91642B" d="m237.719 72.35 50.873 30.344a29 29 0 0 1 13.156 17.4l60.568 226.045c4.574 17.071-5.556 34.618-22.627 39.192l-16.894 4.527z"/><path fill="#D9D9D9" stroke="url(#c)" stroke-width="4" d="m361.025 334.338-255.406 68.436 38.135 26.094a30 30 0 0 0 24.706 4.219l175.375-46.991c16.004-4.289 25.501-20.739 21.213-36.743z"/><path fill="#91642B" d="m101.292 397.917 41.623 29.073a30 30 0 0 0 24.943 4.383l175.695-47.077c14.937-4.002 23.801-19.356 19.799-34.293l-5.577-20.81z"/><mask id="e" fill="#fff"><path d="M28.174 150.776C23.6 133.705 33.73 116.159 50.8 111.584l165.247-44.277c17.071-4.574 34.617 5.556 39.192 22.627l62.839 234.522c4.575 17.071-5.556 34.617-22.627 39.191l-165.247 44.278c-17.071 4.574-34.617-5.556-39.192-22.627z"/></mask><path fill="url(#d)" d="M28.174 150.776C23.6 133.705 33.73 116.159 50.8 111.584l165.247-44.277c17.071-4.574 34.617 5.556 39.192 22.627l62.839 234.522c4.575 17.071-5.556 34.617-22.627 39.191l-165.247 44.278c-17.071 4.574-34.617-5.556-39.192-22.627z"/><path fill="#95500A" d="M24.31 151.812c-5.146-19.205 6.251-38.945 25.456-44.091l161.383-43.243c19.204-5.145 38.945 6.251 44.091 25.456-4.003-14.937-21.086-23.338-38.157-18.763L51.836 115.448c-14.937 4.003-23.801 19.356-19.799 34.293zm302.052 203.553L99.296 416.207zm-196.157 52.56c-19.204 5.146-38.945-6.251-44.09-25.456L24.31 151.812c-5.146-19.205 6.251-38.945 25.456-44.091l2.07 7.727c-14.937 4.003-23.801 19.356-19.799 34.293l62.84 234.521c4.574 17.071 20.391 27.666 35.328 23.663m116.752-348.9 79.405 296.34z" mask="url(#e)"/><g clip-path="url(#f)"><path fill="#72B212" d="M136.717 289.829c-22.909 6.139-46.548-7.526-52.693-30.461a6.15 6.15 0 0 1 4.343-7.533c22.909-6.138 46.548 7.527 52.693 30.462a6.146 6.146 0 0 1-4.343 7.532"/><path fill="#719746" d="M215.762 204.963a6.146 6.146 0 0 1-7.527-4.352c-6.146-22.934 7.493-46.588 30.403-52.727a6.15 6.15 0 0 1 7.528 4.352c6.145 22.935-7.494 46.589-30.404 52.727"/><path fill="#AFD931" d="M218.869 195.397c-11.837-15.837-17.072-35.373-14.739-55.007a6.15 6.15 0 0 0-2.079-5.378 6.15 6.15 0 0 0-5.615-1.294l-35.392 9.483a6.15 6.15 0 0 0-3.327 9.625c11.837 15.837 17.072 35.373 14.739 55.007-.167 1.397.219 3.127 1.183 4.414 11.837 15.837 17.071 35.373 14.738 55.006a6.16 6.16 0 0 0 1.183 4.414c10.077 13.481 15.501 30.174 15.268 47.003a6.16 6.16 0 0 0 2.372 4.942 6.14 6.14 0 0 0 5.366 1.089l30.001-8.039a6.13 6.13 0 0 0 4.102-3.626 6.16 6.16 0 0 0-.416-5.465c-8.617-14.459-12.267-31.627-10.279-48.34a6.16 6.16 0 0 0-1.183-4.415c-11.837-15.836-17.072-35.372-14.739-55.006.19-1.595-.339-3.287-1.183-4.413"/><path fill="#68A615" d="M220.052 199.81c.191-1.596-.339-3.286-1.182-4.414-11.838-15.837-17.072-35.373-14.739-55.006a6.16 6.16 0 0 0-2.079-5.378 6.15 6.15 0 0 0-5.615-1.294l-17.587 4.712 48.826 182.222 14.892-3.99a6.14 6.14 0 0 0 4.102-3.626 6.16 6.16 0 0 0-.417-5.466c-8.616-14.458-12.266-31.626-10.279-48.34a6.16 6.16 0 0 0-1.182-4.414c-11.838-15.836-17.073-35.372-14.74-55.006"/><path fill="#AFD931" d="M159.515 211.3c-11.837-15.837-17.072-35.372-14.739-55.006a6.16 6.16 0 0 0-2.079-5.378 6.14 6.14 0 0 0-5.615-1.294l-35.392 9.483a6.15 6.15 0 0 0-3.327 9.625c11.837 15.837 17.071 35.373 14.738 55.006-.166 1.398.22 3.127 1.183 4.415 11.837 15.836 17.072 35.372 14.739 55.006a6.16 6.16 0 0 0 1.183 4.414c10.077 13.48 15.501 30.174 15.268 47.003a6.16 6.16 0 0 0 2.372 4.942 6.14 6.14 0 0 0 5.365 1.089l30.002-8.039a6.154 6.154 0 0 0 3.685-9.091c-8.616-14.459-12.266-31.627-10.279-48.341a6.16 6.16 0 0 0-1.182-4.414c-11.838-15.837-17.072-35.372-14.739-55.006.19-1.595-.34-3.287-1.183-4.414"/><path fill="#68A615" d="M160.698 215.714c.191-1.596-.339-3.287-1.183-4.414-11.837-15.837-17.072-35.373-14.739-55.006a6.15 6.15 0 0 0-2.079-5.378 6.15 6.15 0 0 0-5.615-1.294l-17.586 4.712 48.826 182.222 14.891-3.99a6.14 6.14 0 0 0 4.102-3.626 6.16 6.16 0 0 0-.416-5.466c-8.617-14.458-12.267-31.626-10.279-48.34a6.16 6.16 0 0 0-1.183-4.414c-11.837-15.836-17.072-35.372-14.739-55.006"/><path fill="#76B320" d="M172.456 207.833a6.15 6.15 0 0 0 1.183 4.414c.819 1.096 1.558 2.246 2.315 3.383l43.784-11.732c.088-1.363.153-2.728.314-4.087a6.16 6.16 0 0 0-1.183-4.415c-.822-1.099-1.534-2.255-2.291-3.389l-43.832 11.745c-.089 1.36-.128 2.718-.29 4.081"/><path fill="#AFD743" d="m216.578 192.007-21.806 5.843 3.185 11.884 21.782-5.837c.088-1.363.153-2.727.314-4.087a6.15 6.15 0 0 0-1.183-4.414c-.822-1.099-1.534-2.256-2.292-3.389"/><path fill="#BAE446" d="M188.377 267.253a6.16 6.16 0 0 0 1.183 4.414c.82 1.097 1.558 2.246 2.316 3.383l43.784-11.732c.088-1.363.152-2.727.314-4.087a6.16 6.16 0 0 0-1.183-4.414c-.822-1.099-1.534-2.256-2.292-3.39l-43.831 11.745c-.09 1.361-.128 2.719-.291 4.081"/><path fill="#AFD743" d="m232.5 251.427-21.806 5.843 3.184 11.884 21.783-5.837c.087-1.363.152-2.728.314-4.087a6.16 6.16 0 0 0-1.183-4.414c-.822-1.098-1.534-2.255-2.292-3.389"/><path fill="#76B320" d="M113.101 223.737a6.16 6.16 0 0 0 1.183 4.414c.82 1.096 1.558 2.246 2.316 3.383l43.784-11.732c.088-1.364.152-2.728.314-4.088a6.16 6.16 0 0 0-1.183-4.414c-.822-1.099-1.534-2.256-2.292-3.389l-43.832 11.745c-.089 1.36-.128 2.718-.29 4.081"/><path fill="#368005" d="m157.224 207.911-21.807 5.843 3.185 11.884 21.783-5.836c.087-1.364.152-2.728.313-4.088a6.16 6.16 0 0 0-1.182-4.414c-.822-1.098-1.535-2.255-2.292-3.389"/><path fill="#76B320" d="M129.023 283.157a6.16 6.16 0 0 0 1.183 4.414c.819 1.096 1.558 2.246 2.315 3.383l43.785-11.732c.087-1.363.152-2.727.313-4.087a6.16 6.16 0 0 0-1.182-4.414c-.822-1.099-1.535-2.256-2.292-3.39l-43.832 11.745c-.089 1.361-.128 2.719-.29 4.081"/><path fill="#368005" d="m173.145 267.331-21.806 5.843 3.184 11.884 21.783-5.836c.088-1.364.152-2.728.314-4.088a6.15 6.15 0 0 0-1.183-4.414c-.822-1.098-1.534-2.255-2.292-3.389"/></g><path fill="#D9D9D9" stroke="#3F2830" stroke-width="4" d="M423 421V77.975l39.651 41.34A30 30 0 0 1 471 140.082V391c0 16.569-13.431 30-30 30z"/><path fill="#91642B" d="m417 74 43.785 44.998A29 29 0 0 1 469 139.222V387c0 17.673-14.327 32-32 32h-20z"/><path fill="#D9D9D9" stroke="url(#g)" stroke-width="4" d="M471 373H192.853l32.235 37.543A30 30 0 0 0 247.849 421H441c16.569 0 30-13.432 30-30z"/><path fill="#91642B" d="m190 367 34.794 41.323A30 30 0 0 0 247.742 419H441c15.464 0 28-12.536 28-28v-24z"/><mask id="i" fill="#fff"><path d="M183 95c0-17.673 14.327-32 32-32h183c17.673 0 32 14.327 32 32v258c0 17.673-14.327 32-32 32H215c-17.673 0-32-14.327-32-32z"/></mask><path fill="url(#h)" d="M183 95c0-17.673 14.327-32 32-32h183c17.673 0 32 14.327 32 32v258c0 17.673-14.327 32-32 32H215c-17.673 0-32-14.327-32-32z"/><path fill="#95500A" d="M179 95c0-19.882 16.118-36 36-36h179c19.882 0 36 16.118 36 36 0-15.464-14.327-28-32-28H215c-15.464 0-28 12.536-28 28zm251 290H183zm-215 0c-19.882 0-36-16.118-36-36V95c0-19.882 16.118-36 36-36v8c-15.464 0-28 12.536-28 28v258c0 17.673 12.536 32 28 32M430 63v322z" mask="url(#i)"/><path fill="#FE2200" d="M291.347 142.023s-2.248-6.977-5.316-11.018-5.59-5.525-5.316-7.83c.273-2.305 6.713-9.882 11.725-10.166s19.259 6.377 24.301 10.734c5.043 4.357 5.589 10.45 5.316 13.923s-2.521 6.978-2.521 6.978-1.671 160.478-1.671 167.74c0 7.261-1.671 20.616-10.601 20.616-8.961 0-10.116-11.65-10.875-17.712-1.428-11.05-5.042-173.265-5.042-173.265m-65.34 24.973c-.425 5.967 18.135 84.454 19.532 86.759s7.533 10.45 12.576 8.43c5.012-2.021.061-61.565-.851-71.668-1.124-12.471-5.862-23.521-15.643-27.846-9.751-4.388-15.34.253-15.614 4.325"/><path fill="#FE2200" d="M247.331 173.121s44.562-2.084 63.001-3.536c14.276-1.136 34.629-2.904 40.765-4.073 6.136-1.168 14.519-5.209 16.767-4.925s19.957 9.44 19.957 10.608.547 6.378-.273 7.546-6.895 7.546-9.113 13.639c-2.248 6.093-11.938 46.852-13.639 49.473-1.458 2.304-16.767-3.757-16.767-3.757s6.409-39.181 6.986-41.801-2.521-6.378-2.521-6.378l-100.667 2.084z"/><path fill="#FE2200" d="M255.32 233.455s78.736-1.737 84.872-1.737 18.438-2.336 22.326-1.168 11.725 6.662 12.849 11.618.547 9.282-3.918 9.882c-4.466.6-115.309.284-115.309.284z"/></g><defs><radialGradient id="b" cx="0" cy="0" r="1" gradientTransform="rotate(90 0 250)scale(268)" gradientUnits="userSpaceOnUse"><stop stop-color="#FF6F6F"/><stop offset="0.743478" stop-color="#FFDF52"/><stop offset="1" stop-color="#fff" stop-opacity="0"/></radialGradient><radialGradient id="d" cx="0" cy="0" r="1" gradientTransform="matrix(69.014 255.72402 -195.94376 52.8807 173.127 237.615)" gradientUnits="userSpaceOnUse"><stop stop-color="#FFF9B8"/><stop offset="1" stop-color="#FFE571"/></radialGradient><radialGradient id="h" cx="0" cy="0" r="1" gradientTransform="rotate(89.897 41.048 265.526)scale(278 213.249)" gradientUnits="userSpaceOnUse"><stop stop-color="#FFF9B8"/><stop offset="1" stop-color="#FFE571"/></radialGradient><linearGradient id="c" x1="244.492" x2="231.669" y1="414.785" y2="366.929" gradientUnits="userSpaceOnUse"><stop stop-color="#6D4238"/><stop offset="1" stop-color="#3F2830"/></linearGradient><linearGradient id="g" x1="330.75" x2="330.75" y1="423" y2="371" gradientUnits="userSpaceOnUse"><stop stop-color="#6D4238"/><stop offset="1" stop-color="#3F2830"/></linearGradient><clipPath id="a"><rect width="500" height="500" fill="#fff" rx="60"/></clipPath><clipPath id="f"><path fill="#fff" d="m58.163 170.768 182.02-48.772 48.826 182.222-182.02 48.772z"/></clipPath></defs></svg>