<svg aria-hidden="true" style="position: absolute; width: 0; height: 0; overflow: hidden;" version="1.1" xmlns="http://www.w3.org/2000/svg" xmlns:xlink="http://www.w3.org/1999/xlink">
<defs>
<symbol id="icon-playstore" viewBox="0 0 32 32">
<path fill="#ea4335" style="fill: var(--color1, #ea4335)" d="M15.058 15.282l-13.159 14.059c0.001 0.003 0.001 0.006 0.002 0.009 0.404 1.527 1.788 2.65 3.432 2.65 0.658 0 1.274-0.179 1.803-0.493l0.042-0.025 14.812-8.603-6.933-7.597z"></path>
<path fill="#fbbc04" style="fill: var(--color2, #fbbc04)" d="M28.371 12.888l-0.012-0.009-6.395-3.731-7.204 6.454 7.23 7.276 6.36-3.694c1.115-0.607 1.872-1.79 1.872-3.154 0-1.356-0.747-2.533-1.851-3.142z"></path>
<path fill="#4285f4" style="fill: var(--color3, #4285f4)" d="M1.899 2.658c-0.079 0.294-0.121 0.602-0.121 0.921v24.843c0 0.319 0.042 0.627 0.122 0.919l13.61-13.699-13.612-12.984z"></path>
<path fill="#34a853" style="fill: var(--color4, #34a853)" d="M15.156 16l6.81-6.854-14.794-8.634c-0.538-0.325-1.165-0.511-1.837-0.511-1.644 0-3.031 1.126-3.435 2.654 0 0.001-0.001 0.002-0.001 0.004l13.257 13.342z"></path>
</symbol>
<symbol id="icon-Star" viewBox="0 0 32 32">
<path d="M15.667 6c-0.121 0-0.42 0.033-0.579 0.351l-2.435 4.868c-0.385 0.769-1.128 1.304-1.987 1.427l-5.451 0.785c-0.36 0.052-0.483 0.319-0.52 0.431-0.033 0.108-0.087 0.383 0.161 0.62l3.941 3.787c0.628 0.604 0.913 1.475 0.764 2.327l-0.928 5.347c-0.057 0.335 0.152 0.529 0.245 0.596 0.099 0.075 0.363 0.223 0.689 0.052l4.873-2.527c0.768-0.396 1.683-0.396 2.448 0l4.872 2.525c0.328 0.169 0.592 0.021 0.692-0.051 0.093-0.067 0.303-0.261 0.245-0.596l-0.931-5.347c-0.149-0.852 0.136-1.723 0.764-2.327l3.941-3.787c0.249-0.237 0.196-0.513 0.161-0.62-0.036-0.112-0.159-0.379-0.519-0.431l-5.451-0.785c-0.857-0.123-1.6-0.657-1.985-1.428l-2.437-4.867c-0.157-0.317-0.456-0.351-0.577-0.351zM9.263 28.667c-0.551 0-1.097-0.173-1.565-0.515-0.808-0.592-1.204-1.569-1.032-2.553l0.928-5.347c0.035-0.199-0.033-0.4-0.18-0.541l-3.941-3.787c-0.725-0.695-0.985-1.721-0.679-2.675 0.309-0.964 1.128-1.653 2.137-1.797l5.451-0.785c0.211-0.029 0.392-0.159 0.483-0.343l2.436-4.869c0.449-0.897 1.356-1.455 2.367-1.455s1.917 0.557 2.367 1.455l2.437 4.868c0.092 0.185 0.272 0.315 0.481 0.344l5.451 0.785c1.009 0.144 1.828 0.833 2.137 1.797 0.307 0.953 0.045 1.98-0.68 2.675l-3.941 3.787c-0.147 0.141-0.213 0.343-0.179 0.54l0.929 5.348c0.171 0.985-0.225 1.963-1.035 2.553-0.82 0.601-1.888 0.683-2.793 0.211l-4.871-2.524c-0.191-0.099-0.419-0.099-0.609 0l-4.871 2.525c-0.389 0.203-0.809 0.303-1.228 0.303z"></path>
</symbol>
<symbol id="icon-Vector-left" viewBox="0 0 32 32">
<path stroke-linejoin="round" stroke-linecap="round" stroke-miterlimit="4" stroke-width="4.5714" d="M22.857 29.714l-13.714-13.714 13.714-13.714"></path>
</symbol>
<symbol id="icon-Vector-right" viewBox="0 0 32 32">
<path stroke-linejoin="round" stroke-linecap="round" stroke-miterlimit="4" stroke-width="4.5714" d="M9.143 29.714l13.714-13.714-13.714-13.714"></path>
</symbol>
<symbol id="icon-x" viewBox="0 0 32 32">
<path stroke-linejoin="round" stroke-linecap="round" stroke-miterlimit="4" stroke-width="2.6667" d="M24 8l-16 16"></path>
<path stroke-linejoin="round" stroke-linecap="round" stroke-miterlimit="4" stroke-width="2.6667" d="M8 8l16 16"></path>
</symbol>
<symbol id="icon-menu" viewBox="0 0 32 32">
<path stroke-linejoin="round" stroke-linecap="round" stroke-miterlimit="4" stroke-width="2.6667" d="M4 16h24"></path>
<path stroke-linejoin="round" stroke-linecap="round" stroke-miterlimit="4" stroke-width="2.6667" d="M4 8h24"></path>
<path stroke-linejoin="round" stroke-linecap="round" stroke-miterlimit="4" stroke-width="2.6667" d="M4 24h24"></path>
</symbol>
<symbol id="icon-Chat" viewBox="0 0 32 32">
<path d="M15.665 1.334c3.831 0 7.431 1.489 10.135 4.195 5.589 5.589 5.589 14.683 0 20.272-2.74 2.741-6.429 4.192-10.167 4.192-2.037 0-4.088-0.431-6.007-1.319-0.565-0.227-1.095-0.44-1.475-0.44-0.437 0.003-1.025 0.205-1.593 0.401-1.165 0.4-2.616 0.899-3.689-0.171-1.069-1.071-0.576-2.517-0.179-3.681 0.196-0.573 0.397-1.165 0.397-1.613 0-0.368-0.177-0.837-0.449-1.513-2.497-5.393-1.343-11.893 2.893-16.127 2.704-2.705 6.303-4.196 10.133-4.196zM15.666 3.334c-3.297 0-6.395 1.283-8.721 3.611-3.645 3.643-4.637 9.236-2.471 13.92 0.312 0.772 0.613 1.524 0.613 2.305 0 0.78-0.268 1.565-0.504 2.259-0.195 0.571-0.489 1.432-0.3 1.621 0.185 0.192 1.052-0.111 1.624-0.307 0.687-0.235 1.465-0.504 2.237-0.509 0.773 0 1.503 0.293 2.275 0.604 4.729 2.187 10.323 1.192 13.967-2.451 4.808-4.811 4.808-12.636 0-17.444-2.328-2.328-5.424-3.609-8.72-3.609zM20.928 14.884c0.736 0 1.333 0.596 1.333 1.333s-0.597 1.333-1.333 1.333-1.339-0.596-1.339-1.333c0-0.737 0.591-1.333 1.327-1.333h0.012zM15.583 14.884c0.736 0 1.333 0.596 1.333 1.333s-0.597 1.333-1.333 1.333-1.339-0.596-1.339-1.333c0-0.737 0.589-1.333 1.327-1.333h0.012zM10.238 14.884c0.736 0 1.333 0.596 1.333 1.333s-0.597 1.333-1.333 1.333-1.339-0.596-1.339-1.333c0-0.737 0.591-1.333 1.327-1.333h0.012z"></path>
</symbol>
<symbol id="icon-connection" viewBox="0 0 32 32">
<path d="M0.309 11.894c-0.413-0.408-0.413-1.068 0-1.476 2.061-2.035 4.507-3.649 7.199-4.75s5.578-1.668 8.492-1.668 5.799 0.567 8.492 1.668c2.692 1.101 5.138 2.715 7.199 4.75 0.413 0.407 0.413 1.068 0 1.476s-1.082 0.408-1.494 0c-1.864-1.841-4.077-3.301-6.513-4.298s-5.046-1.509-7.683-1.509c-2.636 0-5.247 0.513-7.683 1.509s-4.649 2.457-6.513 4.298c-0.413 0.408-1.082 0.408-1.494 0z"></path>
<path d="M5.353 16.505c-0.413-0.407-0.413-1.068 0-1.476 1.447-1.429 3.165-2.563 5.056-3.336s3.918-1.172 5.964-1.172c2.047 0 4.073 0.398 5.964 1.172s3.609 1.907 5.056 3.336c0.413 0.407 0.413 1.068 0 1.476s-1.082 0.408-1.494 0c-1.251-1.235-2.736-2.215-4.371-2.884s-3.386-1.013-5.156-1.013c-1.769 0-3.521 0.344-5.156 1.013s-3.12 1.649-4.371 2.884c-0.413 0.408-1.082 0.408-1.494 0z"></path>
<path d="M9.649 21.117c-0.413-0.407-0.413-1.068 0-1.476 0.834-0.824 1.824-1.477 2.914-1.923s2.258-0.675 3.437-0.675 2.347 0.229 3.437 0.675c1.090 0.446 2.080 1.099 2.914 1.923 0.413 0.407 0.413 1.068 0 1.476s-1.082 0.408-1.494 0c-0.638-0.63-1.395-1.129-2.228-1.47s-1.726-0.516-2.628-0.516-1.795 0.175-2.628 0.516c-0.833 0.341-1.59 0.84-2.228 1.47-0.413 0.408-1.082 0.408-1.494 0z"></path>
<path d="M17.494 24.437c0.825 0.815 0.825 2.136 0 2.951s-2.163 0.815-2.989 0c-0.825-0.815-0.825-2.136 0-2.951s2.163-0.815 2.989 0z"></path>
</symbol>
<symbol id="icon-card-desktop-v" viewBox="0 0 22 32">
<path fill="#937234" style="fill: var(--color1, #937234)" d="M0.992 2.977c0-1.096 0.849-1.984 1.896-1.984l16.46-0.992c1.302 0 2.977 1.881 2.977 2.977v27.039c0 1.096-0.849 1.985-1.896 1.985h-17.541c-1.047 0-2.889-1.674-2.889-2.977l0.992-26.047z"></path>
<path fill="#fff9b8" style="fill: var(--color2, #fff9b8); stroke: var(--color3, #ba935b)" stroke="#ba935b" stroke-linejoin="miter" stroke-linecap="butt" stroke-miterlimit="4" stroke-width="0.3721" d="M0.186 1.984c0-0.993 0.805-1.798 1.798-1.798h17.364c0.993 0 1.798 0.805 1.798 1.798v27.039c0 0.993-0.805 1.798-1.798 1.798h-17.364c-0.993 0-1.798-0.805-1.798-1.798v-27.039z"></path>
<path fill="#ba935b" style="fill: var(--color3, #ba935b)" d="M10.233 0.744c-3.843 0-7.073-0.316-7.988-0.744h15.976c-0.916 0.428-4.145 0.744-7.988 0.744zM0.992 13.209c0 4.601-0.38 8.764-0.992 11.764v-23.529c0.613 3.001 0.992 7.163 0.992 11.764zM21.333 6.45c-0.621 3.058-0.992 6.939-0.992 11.163s0.371 8.105 0.992 11.163v-22.326zM10.171 29.891c4.058 0 7.467 0.474 8.434 1.116h-16.868c0.967-0.642 4.376-1.116 8.434-1.116z"></path>
</symbol>
<symbol id="icon-card-desktop-h" viewBox="0 0 50 32">
<path fill="#937234" style="fill: var(--color1, #937234)" d="M1.422 4.267c0-1.571 1.274-2.844 2.844-2.844l41.6-1.422c1.867 0 4.267 2.696 4.267 4.267v24.889c0 1.571-1.273 2.844-2.844 2.844h-43.022c-1.571 0-4.267-2.4-4.267-4.267l1.422-23.467z"></path>
<path fill="#fff9b8" style="fill: var(--color2, #fff9b8); stroke: var(--color3, #ba935b)" stroke="#ba935b" stroke-linejoin="miter" stroke-linecap="butt" stroke-miterlimit="4" stroke-width="0.5333" d="M3.118 0.267c-1.598 0-2.851 1.177-2.851 2.578v24.889c0 1.401 1.253 2.578 2.851 2.578h42.476c1.598 0 2.851-1.177 2.851-2.578v-24.889c0-1.401-1.253-2.578-2.851-2.578h-42.476z"></path>
<path fill="#ba935b" style="fill: var(--color3, #ba935b)" d="M0 26.487v-23.64c0.010-0.001 0.020-0.002 0.030-0.002 0.854 0 1.545 5.293 1.545 11.822s-0.692 11.822-1.545 11.822c-0.010 0-0.020-0.001-0.030-0.002zM20.99 1.422c-7.166 0-13.65-0.544-18.323-1.422h36.647c-4.674 0.878-11.157 1.422-18.323 1.422zM10.461 30.578c4.763-0.89 10.808-1.422 17.386-1.422s12.623 0.532 17.386 1.422h-34.773zM47.289 15.467c0 5.816 0.604 10.703 1.422 12.089v-24.178c-0.818 1.386-1.422 6.273-1.422 12.089z"></path>
</symbol>
<symbol id="icon-Download" viewBox="0 0 32 32">
<path d="M9.823 10.31c0.552 0 1 0.448 1 1s-0.448 1-1 1h-1.255c-2.152 0-3.901 1.748-3.901 3.899v6.513c0 2.159 1.755 3.913 3.913 3.913h14.853c2.149 0 3.9-1.751 3.9-3.9v-6.512c0-2.159-1.756-3.913-3.912-3.913h-1.243c-0.552 0-1-0.448-1-1s0.448-1 1-1h1.243c3.26 0 5.912 2.653 5.912 5.913v6.512c0 3.253-2.648 5.9-5.9 5.9h-14.853c-3.26 0-5.913-2.652-5.913-5.913v-6.513c0-3.253 2.647-5.899 5.901-5.899h1.255zM16.001 4c0.552 0 1 0.448 1 1l-0.001 13.635 2.181-2.189c0.389-0.392 1.021-0.392 1.413-0.003 0.391 0.389 0.392 1.023 0.003 1.415l-3.879 3.894c-0.038 0.039-0.079 0.075-0.123 0.107l0.114-0.099c-0.043 0.044-0.090 0.083-0.139 0.117-0.030 0.021-0.061 0.040-0.093 0.057-0.015 0.008-0.031 0.017-0.048 0.024-0.029 0.014-0.059 0.026-0.089 0.037-0.015 0.005-0.031 0.010-0.046 0.015-0.038 0.012-0.076 0.021-0.116 0.028-0.009 0.001-0.017 0.003-0.025 0.004-0.032 0.005-0.065 0.008-0.099 0.010-0.018 0.001-0.036 0.001-0.054 0.001l-0.053-0.004-0.083-0.005c-0.006-0.001-0.012-0.002-0.018-0.003l0.153 0.012c-0.060 0-0.119-0.005-0.177-0.016-0.040-0.007-0.079-0.016-0.116-0.028-0.015-0.005-0.030-0.010-0.044-0.015-0.031-0.011-0.061-0.023-0.090-0.037-0.018-0.008-0.036-0.018-0.053-0.027-0.025-0.014-0.048-0.028-0.071-0.043-0.016-0.010-0.032-0.022-0.047-0.033-0.038-0.029-0.074-0.060-0.108-0.093l-0.001-0.002-3.888-3.903c-0.389-0.392-0.388-1.025 0.003-1.415 0.392-0.389 1.024-0.389 1.413 0.003l2.179 2.189 0.001-13.635c0-0.552 0.448-1 1-1z"></path>
</symbol>
<symbol id="google-play" viewBox="0 0 149 32">
<path d="M116.073 23.699h3.287v-22.186h-3.287v22.186zM145.678 9.505l-3.768 9.619h-0.113l-3.911-9.619h-3.541l5.864 13.444-3.341 7.479h3.426l9.038-20.923h-3.655zM127.038 21.179c-1.078 0-2.579-0.541-2.579-1.885 0-1.711 1.869-2.368 3.484-2.368 1.444 0 2.126 0.314 3.003 0.742-0.255 2.055-2.012 3.511-3.909 3.511zM127.434 9.020c-2.38 0-4.846 1.056-5.864 3.397l2.917 1.226c0.624-1.226 1.784-1.627 3.003-1.627 1.7 0 3.428 1.028 3.456 2.856v0.227c-0.595-0.343-1.869-0.855-3.428-0.855-3.144 0-6.347 1.741-6.347 4.994 0 2.969 2.579 4.882 5.468 4.882 2.211 0 3.43-0.999 4.194-2.171h0.113v1.713h3.173v-8.506c0-3.938-2.917-6.135-6.685-6.135zM107.121 12.206h-4.675v-7.605h4.675c2.457 0 3.852 2.050 3.852 3.801 0 1.72-1.395 3.803-3.852 3.803zM107.036 1.513h-7.876v22.186h3.285v-8.405h4.591c3.643 0 7.224-2.659 7.224-6.891s-3.581-6.89-7.224-6.89zM64.089 21.183c-2.271 0-4.171-1.915-4.171-4.545 0-2.659 1.901-4.604 4.171-4.604 2.242 0 4 1.945 4 4.604 0 2.63-1.758 4.545-4 4.545zM67.864 10.747h-0.115c-0.738-0.886-2.156-1.686-3.944-1.686-3.747 0-7.18 3.315-7.18 7.576 0 4.231 3.433 7.52 7.18 7.52 1.788 0 3.206-0.8 3.944-1.716h0.115v1.088c0 2.887-1.533 4.432-4.002 4.432-2.015 0-3.264-1.459-3.775-2.689l-2.866 1.202c0.823 2.002 3.009 4.46 6.641 4.46 3.86 0 7.124-2.288 7.124-7.862v-13.554h-3.121v1.23zM73.256 23.699h3.292v-22.188h-3.292v22.188zM81.399 16.38c-0.084-2.916 2.243-4.403 3.916-4.403 1.307 0 2.413 0.657 2.781 1.601l-6.697 2.802zM91.616 13.864c-0.623-1.686-2.526-4.802-6.413-4.802-3.86 0-7.065 3.058-7.065 7.548 0 4.231 3.178 7.548 7.433 7.548 3.435 0 5.422-2.116 6.245-3.345l-2.554-1.716c-0.851 1.258-2.015 2.087-3.691 2.087-1.673 0-2.866-0.772-3.632-2.286l10.018-4.176-0.34-0.857zM11.806 11.377v3.202h7.604c-0.227 1.801-0.823 3.116-1.73 4.030-1.108 1.116-2.84 2.346-5.875 2.346-4.684 0-8.344-3.803-8.344-8.521 0-4.719 3.66-8.521 8.344-8.521 2.526 0 4.37 1.001 5.732 2.288l2.242-2.259c-1.902-1.83-4.427-3.232-7.974-3.232-6.414 0-11.806 5.262-11.806 11.724s5.392 11.722 11.806 11.722c3.461 0 6.072-1.145 8.115-3.289 2.102-2.116 2.753-5.088 2.753-7.491 0-0.744-0.056-1.429-0.171-2h-10.698zM31.321 21.183c-2.271 0-4.229-1.887-4.229-4.574 0-2.717 1.959-4.575 4.229-4.575 2.269 0 4.228 1.858 4.228 4.575 0 2.687-1.959 4.574-4.228 4.574zM31.321 9.061c-4.145 0-7.522 3.173-7.522 7.548 0 4.346 3.377 7.548 7.522 7.548 4.143 0 7.52-3.202 7.52-7.548 0-4.375-3.377-7.548-7.52-7.548zM47.726 21.183c-2.271 0-4.229-1.887-4.229-4.574 0-2.717 1.959-4.575 4.229-4.575s4.228 1.858 4.228 4.575c0 2.687-1.957 4.574-4.228 4.574zM47.726 9.061c-4.143 0-7.52 3.173-7.52 7.548 0 4.346 3.377 7.548 7.52 7.548s7.52-3.202 7.52-7.548c0-4.375-3.377-7.548-7.52-7.548z"></path>
</symbol>
</defs>
</svg>
