<svg width="500" height="500" viewBox="0 0 500 500" fill="none" xmlns="http://www.w3.org/2000/svg">
<g clip-path="url(#clip0_209_632)">
<rect width="500" height="500" rx="60" fill="#2042C5"/>
<circle cx="250" cy="250" r="143" stroke="url(#paint0_radial_209_632)" stroke-opacity="0.3" stroke-width="250" stroke-dasharray="500 500 1000 1500 2000 500 500 1000"/>
<path d="M328.873 390.105L244.37 74.7361L290.293 102.577C296.907 106.587 301.716 112.996 303.718 120.466L365.048 349.353C369.336 365.357 359.839 381.807 343.835 386.096L328.873 390.105Z" fill="#D9D9D9" stroke="#3F2830" stroke-width="4"/>
<path d="M237.719 72.3501L288.592 102.694C295.074 106.561 299.794 112.803 301.748 120.094L362.316 346.139C366.89 363.21 356.76 380.757 339.689 385.331L322.795 389.858L237.719 72.3501Z" fill="#91642B"/>
<path d="M361.025 334.338L105.619 402.774L143.754 428.868C150.98 433.812 160.004 435.353 168.46 433.087L343.835 386.096C359.839 381.807 369.336 365.357 365.048 349.353L361.025 334.338Z" fill="#D9D9D9" stroke="url(#paint1_linear_209_632)" stroke-width="4"/>
<path d="M101.292 397.917L142.915 426.99C150.175 432.061 159.304 433.665 167.858 431.373L343.553 384.296C358.49 380.294 367.354 364.94 363.352 350.003L357.775 329.193L101.292 397.917Z" fill="#91642B"/>
<mask id="path-7-inside-1_209_632" fill="white">
<path d="M28.1737 150.776C23.5995 133.705 33.7302 116.159 50.8011 111.584L216.048 67.3068C233.119 62.7327 250.665 72.8633 255.24 89.9342L318.079 324.456C322.654 341.527 312.523 359.073 295.452 363.647L130.205 407.925C113.134 412.499 95.5877 402.369 91.0135 385.298L28.1737 150.776Z"/>
</mask>
<path d="M28.1737 150.776C23.5995 133.705 33.7302 116.159 50.8011 111.584L216.048 67.3068C233.119 62.7327 250.665 72.8633 255.24 89.9342L318.079 324.456C322.654 341.527 312.523 359.073 295.452 363.647L130.205 407.925C113.134 412.499 95.5877 402.369 91.0135 385.298L28.1737 150.776Z" fill="url(#paint2_radial_209_632)"/>
<path d="M24.31 151.812C19.1641 132.607 30.5611 112.867 49.7658 107.721L211.149 64.4784C230.353 59.3325 250.094 70.7294 255.24 89.9342C251.237 74.9972 234.154 66.5964 217.083 71.1705L51.8364 115.448C36.8993 119.451 28.035 134.804 32.0374 149.741L24.31 151.812ZM326.362 355.365L99.2957 416.207L326.362 355.365ZM130.205 407.925C111.001 413.071 91.2604 401.674 86.1145 382.469L24.31 151.812C19.1641 132.607 30.5611 112.867 49.7658 107.721L51.8364 115.448C36.8993 119.451 28.035 134.804 32.0374 149.741L94.8772 384.262C99.4514 401.333 115.268 411.928 130.205 407.925ZM246.957 59.0246L326.362 355.365L246.957 59.0246Z" fill="#95500A" mask="url(#path-7-inside-1_209_632)"/>
<g clip-path="url(#clip1_209_632)">
<path d="M136.717 289.829C113.808 295.968 90.1689 282.303 84.0236 259.368C83.144 256.085 85.0881 252.714 88.367 251.835C111.276 245.697 134.915 259.362 141.06 282.297C141.94 285.579 139.996 288.951 136.717 289.829Z" fill="#72B212"/>
<path d="M215.762 204.963C212.484 205.842 209.114 203.894 208.235 200.611C202.089 177.677 215.728 154.023 238.638 147.884C241.917 147.006 245.286 148.953 246.166 152.236C252.311 175.171 238.672 198.825 215.762 204.963Z" fill="#719746"/>
<path d="M218.869 195.397C207.032 179.56 201.797 160.024 204.13 140.39C204.372 138.362 203.592 136.349 202.051 135.012C200.509 133.676 198.405 133.19 196.436 133.718L161.044 143.201C159.075 143.729 157.496 145.201 156.828 147.129C156.163 149.058 156.494 151.191 157.717 152.826C169.554 168.663 174.789 188.199 172.456 207.833C172.289 209.23 172.675 210.96 173.639 212.247C185.476 228.084 190.71 247.62 188.377 267.253C188.191 268.823 188.614 270.403 189.56 271.667C199.637 285.148 205.061 301.841 204.828 318.67C204.802 320.597 205.68 322.427 207.2 323.612C208.719 324.797 210.705 325.2 212.566 324.701L242.567 316.662C244.428 316.164 245.947 314.822 246.669 313.036C247.394 311.25 247.239 309.226 246.253 307.571C237.636 293.112 233.986 275.944 235.974 259.231C236.161 257.663 235.737 256.083 234.791 254.816C222.954 238.98 217.719 219.444 220.052 199.81C220.242 198.215 219.713 196.523 218.869 195.397Z" fill="#AFD931"/>
<path d="M220.052 199.81C220.243 198.214 219.713 196.524 218.87 195.396C207.032 179.559 201.798 160.023 204.131 140.39C204.372 138.362 203.592 136.349 202.052 135.012C200.509 133.676 198.406 133.19 196.437 133.718L178.85 138.43L227.676 320.652L242.568 316.662C244.429 316.163 245.947 314.821 246.67 313.036C247.394 311.249 247.239 309.226 246.253 307.57C237.637 293.112 233.987 275.944 235.974 259.23C236.161 257.663 235.738 256.083 234.792 254.816C222.954 238.98 217.719 219.444 220.052 199.81Z" fill="#68A615"/>
<path d="M159.515 211.3C147.678 195.463 142.443 175.928 144.776 156.294C145.017 154.266 144.237 152.253 142.697 150.916C141.154 149.579 139.051 149.094 137.082 149.622L101.69 159.105C99.7208 159.633 98.1418 161.105 97.474 163.033C96.8083 164.961 97.1399 167.095 98.3626 168.73C110.2 184.567 115.434 204.103 113.101 223.736C112.935 225.134 113.321 226.863 114.284 228.151C126.121 243.987 131.356 263.523 129.023 283.157C128.837 284.726 129.26 286.307 130.206 287.571C140.283 301.051 145.707 317.745 145.474 334.574C145.448 336.501 146.326 338.331 147.846 339.516C149.365 340.701 151.351 341.103 153.211 340.605L183.213 332.566C185.074 332.067 186.592 330.726 187.315 328.94C188.04 327.153 187.885 325.13 186.898 323.475C178.282 309.016 174.632 291.848 176.619 275.134C176.806 273.567 176.383 271.987 175.437 270.72C163.599 254.883 158.365 235.348 160.698 215.714C160.888 214.119 160.358 212.427 159.515 211.3Z" fill="#AFD931"/>
<path d="M160.698 215.714C160.889 214.118 160.359 212.427 159.515 211.3C147.678 195.463 142.443 175.927 144.776 156.294C145.018 154.266 144.238 152.253 142.697 150.916C141.155 149.58 139.051 149.094 137.082 149.622L119.496 154.334L168.322 336.556L183.213 332.566C185.074 332.067 186.593 330.725 187.315 328.94C188.04 327.153 187.885 325.13 186.899 323.474C178.282 309.016 174.632 291.848 176.62 275.134C176.807 273.567 176.383 271.986 175.437 270.72C163.6 254.884 158.365 235.348 160.698 215.714Z" fill="#68A615"/>
<path d="M172.456 207.833C172.269 209.402 172.693 210.983 173.639 212.247C174.458 213.343 175.197 214.493 175.954 215.63L219.738 203.898C219.826 202.535 219.891 201.17 220.052 199.811C220.239 198.243 219.816 196.663 218.869 195.396C218.047 194.297 217.335 193.141 216.578 192.007L172.746 203.752C172.657 205.112 172.618 206.47 172.456 207.833Z" fill="#76B320"/>
<path d="M216.578 192.007L194.772 197.85L197.957 209.734L219.739 203.897C219.827 202.534 219.892 201.17 220.053 199.81C220.24 198.242 219.817 196.662 218.87 195.396C218.048 194.297 217.336 193.14 216.578 192.007Z" fill="#AFD743"/>
<path d="M188.377 267.253C188.191 268.823 188.614 270.403 189.56 271.667C190.38 272.764 191.118 273.913 191.876 275.05L235.66 263.318C235.748 261.955 235.812 260.591 235.974 259.231C236.161 257.664 235.737 256.083 234.791 254.817C233.969 253.718 233.257 252.561 232.499 251.427L188.668 263.172C188.578 264.533 188.54 265.891 188.377 267.253Z" fill="#BAE446"/>
<path d="M232.5 251.427L210.694 257.27L213.878 269.154L235.661 263.317C235.748 261.954 235.813 260.589 235.975 259.23C236.162 257.662 235.738 256.082 234.792 254.816C233.97 253.718 233.258 252.561 232.5 251.427Z" fill="#AFD743"/>
<path d="M113.101 223.737C112.915 225.306 113.339 226.886 114.284 228.151C115.104 229.247 115.842 230.397 116.6 231.534L160.384 219.802C160.472 218.438 160.536 217.074 160.698 215.714C160.885 214.147 160.461 212.567 159.515 211.3C158.693 210.201 157.981 209.044 157.223 207.911L113.391 219.656C113.302 221.016 113.263 222.374 113.101 223.737Z" fill="#76B320"/>
<path d="M157.224 207.911L135.417 213.754L138.602 225.638L160.385 219.802C160.472 218.438 160.537 217.074 160.698 215.714C160.885 214.147 160.462 212.566 159.516 211.3C158.694 210.202 157.981 209.045 157.224 207.911Z" fill="#368005"/>
<path d="M129.023 283.157C128.837 284.727 129.26 286.307 130.206 287.571C131.025 288.667 131.764 289.817 132.521 290.954L176.306 279.222C176.393 277.859 176.458 276.495 176.619 275.135C176.806 273.567 176.383 271.987 175.437 270.721C174.615 269.622 173.902 268.465 173.145 267.331L129.313 279.076C129.224 280.437 129.185 281.795 129.023 283.157Z" fill="#76B320"/>
<path d="M173.145 267.331L151.339 273.174L154.523 285.058L176.306 279.222C176.394 277.858 176.458 276.494 176.62 275.134C176.807 273.567 176.384 271.986 175.437 270.72C174.615 269.622 173.903 268.465 173.145 267.331Z" fill="#368005"/>
</g>
<path d="M423 421V77.9746L462.651 119.315C468.009 124.901 471 132.342 471 140.082V391C471 407.569 457.569 421 441 421H423Z" fill="#D9D9D9" stroke="#3F2830" stroke-width="4"/>
<path d="M417 74L460.785 118.998C466.052 124.412 469 131.668 469 139.222V387C469 404.673 454.673 419 437 419H417V74Z" fill="#91642B"/>
<path d="M471 373L192.853 373L225.088 410.543C230.787 417.181 239.1 421 247.849 421L441 421C457.569 421 471 407.568 471 391L471 373Z" fill="#D9D9D9" stroke="url(#paint3_linear_209_632)" stroke-width="4"/>
<path d="M190 367L224.794 408.323C230.494 415.092 238.893 419 247.742 419L441 419C456.464 419 469 406.464 469 391L469 367L190 367Z" fill="#91642B"/>
<mask id="path-27-inside-2_209_632" fill="white">
<path d="M183 95C183 77.3269 197.327 63 215 63H398C415.673 63 430 77.3269 430 95V353C430 370.673 415.673 385 398 385H215C197.327 385 183 370.673 183 353V95Z"/>
</mask>
<path d="M183 95C183 77.3269 197.327 63 215 63H398C415.673 63 430 77.3269 430 95V353C430 370.673 415.673 385 398 385H215C197.327 385 183 370.673 183 353V95Z" fill="url(#paint4_radial_209_632)"/>
<path d="M179 95C179 75.1177 195.118 59 215 59H394C413.882 59 430 75.1177 430 95C430 79.536 415.673 67 398 67H215C199.536 67 187 79.536 187 95H179ZM430 385H183H430ZM215 385C195.118 385 179 368.882 179 349V95C179 75.1177 195.118 59 215 59V67C199.536 67 187 79.536 187 95V353C187 370.673 199.536 385 215 385ZM430 63V385V63Z" fill="#95500A" mask="url(#path-27-inside-2_209_632)"/>
<path d="M291.347 142.023C291.347 142.023 289.099 135.046 286.031 131.005C282.963 126.963 280.441 125.48 280.715 123.175C280.988 120.87 287.428 113.293 292.44 113.009C297.452 112.725 311.699 119.386 316.741 123.743C321.784 128.1 322.33 134.193 322.057 137.666C321.784 141.139 319.536 144.644 319.536 144.644C319.536 144.644 317.865 305.122 317.865 312.384C317.865 319.645 316.194 333 307.264 333C298.303 333 297.148 321.35 296.389 315.288C294.961 304.238 291.347 142.023 291.347 142.023Z" fill="#FE2200"/>
<path d="M226.007 166.996C225.582 172.963 244.142 251.45 245.539 253.755C246.936 256.06 253.072 264.205 258.115 262.185C263.127 260.164 258.176 200.62 257.264 190.517C256.14 178.046 251.402 166.996 241.621 162.671C231.87 158.283 226.281 162.924 226.007 166.996Z" fill="#FE2200"/>
<path d="M247.331 173.121C247.331 173.121 291.893 171.037 310.332 169.585C324.608 168.449 344.961 166.681 351.097 165.512C357.233 164.344 365.616 160.303 367.864 160.587C370.112 160.871 387.821 170.027 387.821 171.195C387.821 172.363 388.368 177.573 387.548 178.741C386.728 179.909 380.653 186.287 378.435 192.38C376.187 198.473 366.497 239.232 364.796 241.853C363.338 244.157 348.029 238.096 348.029 238.096C348.029 238.096 354.438 198.915 355.015 196.295C355.592 193.674 352.494 189.917 352.494 189.917L251.827 192.001L247.331 173.121Z" fill="#FE2200"/>
<path d="M255.32 233.455C255.32 233.455 334.056 231.718 340.192 231.718C346.328 231.718 358.63 229.382 362.518 230.55C366.406 231.718 374.243 237.212 375.367 242.168C376.491 247.125 375.914 251.45 371.449 252.05C366.983 252.65 256.14 252.334 256.14 252.334L255.32 233.455Z" fill="#FE2200"/>
</g>
<defs>
<radialGradient id="paint0_radial_209_632" cx="0" cy="0" r="1" gradientUnits="userSpaceOnUse" gradientTransform="translate(250 250) rotate(90) scale(268)">
<stop stop-color="#FF6F6F"/>
<stop offset="0.743478" stop-color="#FFDF52"/>
<stop offset="1" stop-color="white" stop-opacity="0"/>
</radialGradient>
<linearGradient id="paint1_linear_209_632" x1="244.492" y1="414.785" x2="231.669" y2="366.929" gradientUnits="userSpaceOnUse">
<stop stop-color="#6D4238"/>
<stop offset="1" stop-color="#3F2830"/>
</linearGradient>
<radialGradient id="paint2_radial_209_632" cx="0" cy="0" r="1" gradientUnits="userSpaceOnUse" gradientTransform="translate(173.127 237.616) rotate(74.8971) scale(264.873 202.954)">
<stop stop-color="#FFF9B8"/>
<stop offset="1" stop-color="#FFE571"/>
</radialGradient>
<linearGradient id="paint3_linear_209_632" x1="330.75" y1="423" x2="330.75" y2="371" gradientUnits="userSpaceOnUse">
<stop stop-color="#6D4238"/>
<stop offset="1" stop-color="#3F2830"/>
</linearGradient>
<radialGradient id="paint4_radial_209_632" cx="0" cy="0" r="1" gradientUnits="userSpaceOnUse" gradientTransform="translate(306.5 224) rotate(89.897) scale(278 213.249)">
<stop stop-color="#FFF9B8"/>
<stop offset="1" stop-color="#FFE571"/>
</radialGradient>
<clipPath id="clip0_209_632">
<rect width="500" height="500" rx="60" fill="white"/>
</clipPath>
<clipPath id="clip1_209_632">
<rect width="188.441" height="188.65" fill="white" transform="translate(58.1628 170.768) rotate(-15)"/>
</clipPath>
</defs>
</svg>
